<?xml version="1.0" encoding="utf-8"?>
<svg width="256" height="256" viewBox="0 0 256 256" fill="none" xmlns="http://www.w3.org/2000/svg" xmlns:bx="https://boxy-svg.com">
  <path d="M196 0H60C26.8629 0 0 26.8629 0 60V196C0 229.137 26.8629 256 60 256H196C229.137 256 256 229.137 256 196V60C256 26.8629 229.137 0 196 0Z" fill="#242938" clip-path="url(#clip0_45_439)" />
  <defs>
    <clipPath id="clip0_45_439">
      <rect width="256" height="256" fill="white" />
    </clipPath>
    <linearGradient id="__JETBRAINS_COM__LOGO_PREFIX__30" x1="4.067" x2="62.664" y1="4.327" y2="62.923" gradientUnits="userSpaceOnUse" gradientTransform="matrix(3.062505, 0, 0, 3.062342, 30.000717, 30.001291)">
      <stop offset="0.29" stop-color="#009AE5" />
      <stop offset="0.7" stop-color="#00D980" />
    </linearGradient>
    <linearGradient id="__JETBRAINS_COM__LOGO_PREFIX__29" x1="56.329" x2="2.874" y1="-0.391" y2="24.393" gradientUnits="userSpaceOnUse" gradientTransform="matrix(3.062505, 0, 0, 3.062342, 30.000717, 30.001291)">
      <stop offset="0.3" stop-color="#FF2D90" />
      <stop offset="0.54" stop-color="#009AE5" />
    </linearGradient>
    <bx:export>
      <bx:file format="svg" />
    </bx:export>
  </defs>
  <path fill="url(#__JETBRAINS_COM__LOGO_PREFIX__30)" d="M 226 213.368 L 226 108.856 C 226 103.778 222.963 99.196 218.284 97.218 L 103.674 48.842 C 102.089 48.172 100.382 47.834 98.659 47.847 L 42.527 48.306 C 35.593 48.364 30 54.007 30 60.938 L 30 115.036 C 30 117.504 30.722 119.913 32.076 121.978 L 96.723 220.305 C 99.06 223.862 103.029 226.002 107.279 226 L 213.367 226 C 220.345 226 226 220.345 226 213.368 Z" style="" />
  <path fill="url(#__JETBRAINS_COM__LOGO_PREFIX__29)" d="M 207.626 75.898 L 207.626 42.632 C 207.626 35.657 201.969 30 194.993 30 L 156.509 30 C 155.897 30 155.284 30.044 154.677 30.136 L 40.801 46.819 C 34.6 47.728 30 53.047 30 59.315 L 30 106.469 C 30 113.449 35.659 119.106 42.635 119.102 L 99.308 119.087 C 100.61 119.087 101.905 118.887 103.144 118.49 L 198.836 87.928 C 204.07 86.255 207.622 81.395 207.626 75.898 Z" style="" />
  <path fill="#FF2D90" d="M 207.626 80.385 L 207.626 42.843 C 207.626 35.79 201.846 30.104 194.793 30.215 L 161.696 30.025 C 158.083 30.083 153.934 32.415 151.579 35.163 L 51.417 152.015 C 49.456 154.307 48.378 157.221 48.376 160.236 L 48.376 194.993 C 48.376 201.972 54.031 207.625 61.009 207.625 L 94.704 207.625 C 98.348 207.625 101.813 206.05 104.21 203.31 L 204.501 88.706 C 206.517 86.403 207.628 83.447 207.626 80.385 Z" style="" />
  <path fill="#000" d="M 189.251 66.747 L 66.749 66.747 L 66.749 189.242 L 189.251 189.242 L 189.251 66.747 Z" style="" />
  <path fill="#fff" d="M 131.063 164.743 L 82.063 164.743 L 82.063 173.93 L 131.063 173.93 L 131.063 164.743 Z M 93.538 125.674 C 90.013 123.649 87.107 120.701 85.133 117.143 C 83.097 113.52 82.082 109.477 82.082 105.011 C 82.082 100.547 83.097 96.505 85.133 92.886 C 87.107 89.329 90.013 86.378 93.538 84.35 C 97.103 82.283 101.087 81.244 105.485 81.244 C 109.206 81.244 112.621 81.935 115.729 83.312 C 118.733 84.613 121.39 86.599 123.493 89.106 C 125.554 91.578 126.977 94.515 127.642 97.658 L 118.255 97.658 C 117.661 96.025 116.726 94.53 115.514 93.278 C 114.279 92.006 112.786 91.015 111.131 90.368 C 109.356 89.68 107.46 89.334 105.551 89.35 C 102.835 89.35 100.386 90.03 98.196 91.388 C 96.006 92.75 94.231 94.686 93.06 96.983 C 91.823 99.358 91.204 102.033 91.204 105.005 C 91.204 107.986 91.823 110.66 93.06 113.032 C 94.231 115.334 96.006 117.27 98.196 118.63 C 100.386 119.986 102.835 120.664 105.551 120.664 C 107.46 120.685 109.356 120.338 111.131 119.648 C 114.448 118.361 117.045 115.704 118.255 112.358 L 127.642 112.358 C 126.977 115.508 125.554 118.44 123.493 120.908 C 121.39 123.419 118.733 125.405 115.729 126.703 C 112.621 128.081 109.206 128.77 105.485 128.77 C 101.087 128.77 97.105 127.737 93.538 125.668 L 93.538 125.676 L 93.538 125.674 Z M 144.324 82.035 L 144.324 119.917 L 166.119 119.917 L 166.119 127.99 L 135.394 127.99 L 135.394 82.035 L 144.324 82.035 Z" style="" />
</svg>