<?xml version="1.0" encoding="utf-8"?>
<svg width="256" height="256" viewBox="0 0 256 256" fill="none" xmlns="http://www.w3.org/2000/svg" xmlns:bx="https://boxy-svg.com">
  <defs>
    <linearGradient id="__JETBRAINS_COM__LOGO_PREFIX__38" x1="-0.391" x2="24.392" y1="7.671" y2="61.126" gradientUnits="userSpaceOnUse" gradientTransform="matrix(3.0625, 0, 0, 3.0625, 30.000839, 30.000008)">
      <stop offset="0.1" stop-color="#FC801D" />
      <stop offset="0.59" stop-color="#FE2857" />
    </linearGradient>
    <linearGradient id="__JETBRAINS_COM__LOGO_PREFIX__37" x1="4.325" x2="62.921" y1="59.932" y2="1.336" gradientUnits="userSpaceOnUse" gradientTransform="matrix(3.0625, 0, 0, 3.0625, 30.000839, 30.000008)">
      <stop offset="0.21" stop-color="#FE2857" />
      <stop offset="0.7" stop-color="#007EFF" />
    </linearGradient>
    <bx:export>
      <bx:file format="svg" />
    </bx:export>
  </defs>
  <path d="M196 0H60C26.8629 0 0 26.8629 0 60V196C0 229.137 26.8629 256 60 256H196C229.137 256 256 229.137 256 196V60C256 26.8629 229.137 0 196 0Z" fill="#F4F2ED" clip-path="url(#clip0_45_439)" />
  <path fill="#FF8100" d="M 80.378 48.375 L 42.834 48.375 C 35.782 48.375 30.094 54.154 30.205 61.207 L 30.744 95.029 C 30.802 98.646 32.407 102.064 35.154 104.419 L 152.017 204.584 C 154.304 206.544 157.222 207.625 160.235 207.625 L 194.995 207.625 C 201.971 207.622 207.625 201.968 207.625 194.992 L 207.625 161.296 C 207.625 157.651 206.051 154.188 203.307 151.786 L 88.698 51.502 C 86.396 49.486 83.441 48.375 80.378 48.375 Z" />
  <path fill="url(#__JETBRAINS_COM__LOGO_PREFIX__38)" d="M 75.901 48.375 L 42.632 48.375 C 35.657 48.375 30 54.032 30 61.008 L 30 99.492 C 30 100.104 30.043 100.716 30.135 101.323 L 46.819 215.202 C 47.728 221.404 53.052 226 59.318 226 L 106.474 226 C 113.453 226 119.11 220.34 119.107 213.362 L 119.089 156.695 C 119.089 155.391 118.886 154.095 118.491 152.855 L 87.928 57.168 C 86.258 51.934 81.395 48.381 75.901 48.375 Z" />
  <path fill="url(#__JETBRAINS_COM__LOGO_PREFIX__37)" d="M 213.371 30 L 108.853 30 C 103.775 30 99.191 33.042 97.216 37.717 L 48.837 152.325 C 48.167 153.912 47.83 155.621 47.842 157.342 L 48.301 213.474 C 48.36 220.41 54 226 60.934 226 L 115.037 226 C 117.504 226 119.915 225.277 121.976 223.923 L 220.313 159.278 C 223.865 156.941 226.003 152.971 226 148.721 L 226 42.632 C 226 35.657 220.346 30.003 213.371 30 Z" />
  <path fill="#000" d="M 189.25 66.751 L 66.75 66.751 L 66.75 189.251 L 189.25 189.251 L 189.25 66.751 Z" />
  <path fill="#fff" d="M 131.063 164.751 L 82.063 164.751 L 82.063 173.937 L 131.063 173.937 L 131.063 164.751 Z M 82.063 119.985 L 91.189 119.985 L 91.189 90.049 L 82.063 90.049 L 82.063 82.039 L 109.144 82.039 L 109.144 90.049 L 100.018 90.049 L 100.018 119.985 L 109.144 119.985 L 109.144 128 L 82.063 128 L 82.063 119.988 L 82.063 119.985 Z M 114.657 119.725 L 121.254 119.725 C 122.494 119.75 123.722 119.452 124.815 118.87 C 125.856 118.302 126.658 117.498 127.228 116.457 C 127.798 115.416 128.082 114.231 128.082 112.896 L 128.082 82.039 L 137.043 82.039 L 137.043 113.52 C 137.043 116.277 136.41 118.754 135.138 120.953 C 133.895 123.124 132.079 124.916 129.887 126.122 C 127.657 127.372 125.151 127.994 122.371 127.994 L 114.657 127.994 L 114.657 119.725 Z" />
</svg>