<?xml version="1.0" encoding="utf-8"?>
<svg width="256" height="256" viewBox="0 0 256 256" fill="none" xmlns="http://www.w3.org/2000/svg" xmlns:bx="https://boxy-svg.com">
  <defs>
    <linearGradient id="__JETBRAINS_COM__LOGO_PREFIX__30" x1="56.329" x2="2.874" y1="-0.391" y2="24.392" gradientUnits="userSpaceOnUse" gradientTransform="matrix(3.0625, 0, 0, 3.0625, 30.000854, 29.997015)">
      <stop offset="0.16" stop-color="#D249FC" />
      <stop offset="0.55" stop-color="#FF2D90" />
    </linearGradient>
    <linearGradient id="__JETBRAINS_COM__LOGO_PREFIX__29" x1="4.067" x2="62.664" y1="4.326" y2="62.923" gradientUnits="userSpaceOnUse" gradientTransform="matrix(3.0625, 0, 0, 3.0625, 30.000854, 29.997015)">
      <stop offset="0.3" stop-color="#FF2D90" />
      <stop offset="0.7" stop-color="#7256FF" />
    </linearGradient>
    <bx:export>
      <bx:file format="svg" />
    </bx:export>
  </defs>
  <path d="M196 0H60C26.8629 0 0 26.8629 0 60V196C0 229.137 26.8629 256 60 256H196C229.137 256 256 229.137 256 196V60C256 26.8629 229.137 0 196 0Z" fill="#F4F2ED" clip-path="url(#clip0_45_439)" />
  <path fill="#D249FC" d="M 207.625 80.361 L 207.625 42.818 C 207.625 35.765 201.846 30.078 194.793 30.188 L 160.968 30.727 C 157.351 30.788 153.936 32.396 151.581 35.14 L 51.416 151.996 C 49.456 154.287 48.378 157.205 48.375 160.219 L 48.375 194.978 C 48.378 201.954 54.031 207.608 61.008 207.608 L 94.705 207.608 C 98.349 207.608 101.813 206.034 104.211 203.293 L 204.501 88.679 C 206.516 86.379 207.625 83.42 207.625 80.361 Z" />
  <path fill="url(#__JETBRAINS_COM__LOGO_PREFIX__30)" d="M 207.625 75.896 L 207.625 42.628 C 207.625 35.651 201.969 29.995 194.992 29.995 L 156.509 29.995 C 155.896 29.995 155.284 30.038 154.677 30.13 L 40.801 46.814 C 34.6 47.724 30 53.043 30 59.312 L 30 106.469 C 30 113.448 35.66 119.105 42.636 119.101 L 99.307 119.086 C 100.609 119.086 101.904 118.887 103.145 118.489 L 198.836 87.925 C 204.069 86.253 207.622 81.393 207.625 75.896 Z" />
  <path fill="url(#__JETBRAINS_COM__LOGO_PREFIX__29)" d="M 226 213.371 L 226 108.854 C 226 103.777 222.962 99.195 218.283 97.217 L 103.675 48.839 C 102.088 48.168 100.382 47.831 98.658 47.843 L 42.526 48.303 C 35.592 48.361 30 54.002 30 60.935 L 30 115.034 C 30 117.503 30.723 119.913 32.076 121.977 L 96.723 220.311 C 99.059 223.867 103.028 226.007 107.279 226.004 L 213.367 226.004 C 220.344 226.004 226 220.351 226 213.371 Z" />
  <path fill="#000" d="M 189.25 66.745 L 66.75 66.745 L 66.75 189.245 L 189.25 189.245 L 189.25 66.745 Z" />
  <path fill="#fff" d="M 131.063 164.745 L 82.063 164.745 L 82.063 173.932 L 131.063 173.932 L 131.063 164.745 Z M 82.041 82.033 L 101.77 82.033 C 105.007 82.033 107.846 82.624 110.283 83.806 C 112.727 84.988 114.608 86.651 115.934 88.798 C 117.257 90.942 117.918 93.422 117.918 96.246 C 117.918 99.07 117.245 101.633 115.9 103.798 C 114.553 105.966 112.645 107.645 110.173 108.839 C 107.699 110.033 104.811 110.628 101.506 110.628 L 91.002 110.628 L 91.002 127.995 L 82.038 127.995 L 82.038 82.036 L 82.041 82.033 Z M 105.132 102.337 C 106.262 101.78 107.129 100.981 107.742 99.942 C 108.354 98.901 108.66 97.682 108.66 96.283 C 108.66 94.883 108.354 93.704 107.742 92.687 C 107.129 91.668 106.259 90.881 105.132 90.323 C 104.005 89.766 102.688 89.487 101.179 89.487 L 91.002 89.487 L 91.002 103.176 L 101.179 103.176 C 102.688 103.176 104.005 102.898 105.132 102.34 L 105.132 102.337 Z M 129.752 126.966 C 127.179 125.762 125.167 124.078 123.713 121.913 C 122.258 119.745 121.508 117.252 121.462 114.428 L 130.456 114.428 C 130.456 115.763 130.805 116.933 131.507 117.941 C 132.208 118.948 133.182 119.735 134.428 120.305 C 135.675 120.872 137.108 121.156 138.728 121.156 C 140.351 121.156 141.643 120.902 142.816 120.388 C 143.986 119.873 144.893 119.157 145.542 118.238 C 146.191 117.319 146.507 116.269 146.507 115.087 C 146.507 113.62 146.063 112.407 145.178 111.442 C 144.289 110.481 143.071 109.813 141.518 109.439 L 133.411 107.632 C 131.222 107.155 129.317 106.328 127.697 105.155 C 126.114 104.025 124.821 102.536 123.924 100.806 C 123.027 99.079 122.576 97.131 122.576 94.963 C 122.576 92.338 123.256 89.98 124.613 87.888 C 125.97 85.8 127.862 84.168 130.291 82.998 C 132.722 81.828 135.479 81.243 138.566 81.243 C 141.653 81.243 144.485 81.812 146.935 82.952 C 149.385 84.091 151.296 85.671 152.662 87.696 C 154.031 89.717 154.726 92.044 154.748 94.669 L 145.787 94.669 C 145.787 93.554 145.493 92.553 144.899 91.668 C 144.277 90.755 143.404 90.035 142.388 89.597 C 141.215 89.089 139.944 88.838 138.664 88.862 C 137.261 88.862 136.03 89.095 134.97 89.567 C 133.978 89.983 133.121 90.663 132.49 91.536 C 131.892 92.4 131.583 93.429 131.605 94.476 C 131.605 95.744 132.015 96.794 132.836 97.624 C 133.656 98.457 134.777 99.045 136.201 99.397 L 144.014 101.103 C 146.268 101.563 148.277 102.435 150.038 103.712 C 151.762 104.95 153.171 106.567 154.157 108.441 C 155.14 110.312 155.633 112.355 155.633 114.563 C 155.633 117.276 154.916 119.711 153.486 121.867 C 152.05 124.02 150.044 125.71 147.462 126.938 C 144.881 128.163 141.925 128.776 138.596 128.776 C 135.27 128.776 132.318 128.173 129.752 126.969 L 129.752 126.966 Z" />
</svg>