<?xml version="1.0" encoding="utf-8"?>
<svg width="256" height="256" viewBox="0 0 256 256" fill="none" xmlns="http://www.w3.org/2000/svg" xmlns:bx="https://boxy-svg.com">
  <defs>
    <linearGradient id="__JETBRAINS_COM__LOGO_PREFIX__32" x1="7.671" x2="61.126" y1="64.393" y2="39.609" gradientUnits="userSpaceOnUse" gradientTransform="matrix(3.0625, 0, 0, 3.0625, 30.000854, 29.997002)">
      <stop offset="0.1" stop-color="#00D886" />
      <stop offset="0.59" stop-color="#F0EB18" />
    </linearGradient>
    <linearGradient id="__JETBRAINS_COM__LOGO_PREFIX__31" x1="59.933" x2="1.337" y1="59.676" y2="1.08" gradientUnits="userSpaceOnUse" gradientTransform="matrix(3.0625, 0, 0, 3.0625, 30.000854, 29.997002)">
      <stop offset="0.3" stop-color="#F0EB18" />
      <stop offset="0.7" stop-color="#00C4F4" />
    </linearGradient>
    <bx:export>
      <bx:file format="svg" />
    </bx:export>
  </defs>
  <path d="M196 0H60C26.8629 0 0 26.8629 0 60V196C0 229.137 26.8629 256 60 256H196C229.137 256 256 229.137 256 196V60C256 26.8629 229.137 0 196 0Z" fill="#242938" clip-path="url(#clip0_45_439)" />
  <path fill="#00D886" d="M 48.375 175.619 L 48.375 213.162 C 48.378 220.215 54.154 225.902 61.207 225.792 L 95.029 225.253 C 98.646 225.195 102.067 223.59 104.419 220.843 L 204.584 103.984 C 206.544 101.693 207.625 98.778 207.625 95.761 L 207.625 61.005 C 207.625 54.028 201.969 48.372 194.992 48.372 L 161.296 48.372 C 157.651 48.372 154.187 49.946 151.786 52.687 L 51.502 167.301 C 49.487 169.604 48.375 172.559 48.375 175.619 Z" />
  <path fill="url(#__JETBRAINS_COM__LOGO_PREFIX__32)" d="M 48.375 180.105 L 48.375 213.37 C 48.375 220.347 54.031 226.003 61.008 226.003 L 99.491 226.003 C 100.104 226.003 100.716 225.96 101.323 225.868 L 215.202 209.184 C 221.403 208.274 226 202.955 226 196.686 L 226 149.526 C 226 142.547 220.341 136.89 213.361 136.894 L 156.693 136.909 C 155.388 136.909 154.093 137.111 152.852 137.506 L 57.167 168.07 C 51.931 169.742 48.375 174.608 48.375 180.105 Z" />
  <path fill="url(#__JETBRAINS_COM__LOGO_PREFIX__31)" d="M 30 42.63 L 30 147.144 C 30 152.224 33.041 156.806 37.718 158.781 L 152.325 207.163 C 153.912 207.833 155.618 208.173 157.342 208.155 L 213.474 207.695 C 220.408 207.637 226 201.999 226 195.066 L 226 140.964 C 226 138.495 225.277 136.085 223.924 134.021 L 159.277 35.693 C 156.944 32.138 152.975 29.997 148.721 29.997 L 42.633 29.997 C 35.656 29.997 30 35.653 30 42.63 Z" />
  <path fill="#000" d="M 189.25 66.747 L 66.75 66.747 L 66.75 189.247 L 189.25 189.247 L 189.25 66.747 Z" />
  <path fill="#fff" d="M 131.063 164.747 L 82.063 164.747 L 82.063 173.934 L 131.063 173.934 L 131.063 164.747 Z M 82.041 82.035 L 101.77 82.035 C 105.007 82.035 107.846 82.626 110.283 83.808 C 112.727 84.99 114.608 86.653 115.934 88.8 C 117.257 90.944 117.918 93.424 117.918 96.248 C 117.918 99.072 117.245 101.635 115.9 103.8 C 114.553 105.968 112.645 107.647 110.173 108.841 C 107.699 110.035 104.811 110.63 101.506 110.63 L 91.002 110.63 L 91.002 127.997 L 82.038 127.997 L 82.038 82.038 L 82.041 82.035 Z M 105.132 102.339 C 106.262 101.782 107.129 100.983 107.742 99.944 C 108.354 98.903 108.66 97.684 108.66 96.285 C 108.66 94.885 108.354 93.706 107.742 92.689 C 107.129 91.67 106.259 90.883 105.132 90.325 C 104.005 89.768 102.688 89.489 101.179 89.489 L 90.999 89.489 L 90.999 103.178 L 101.179 103.178 C 102.688 103.178 104.005 102.9 105.132 102.342 L 105.132 102.339 Z M 133.246 125.676 C 129.721 123.651 126.815 120.699 124.843 117.143 C 122.809 113.521 121.792 109.478 121.792 105.013 C 121.792 100.548 122.809 96.505 124.843 92.885 C 126.815 89.327 129.721 86.378 133.246 84.35 C 136.814 82.283 140.798 81.245 145.196 81.245 C 148.917 81.245 152.332 81.934 155.437 83.312 C 158.441 84.614 161.1 86.598 163.2 89.106 C 165.261 91.578 166.689 94.512 167.353 97.66 L 157.964 97.66 C 157.369 96.021 156.435 94.53 155.223 93.277 C 153.988 92.003 152.497 91.014 150.843 90.368 C 149.064 89.676 147.171 89.333 145.26 89.351 C 142.544 89.351 140.094 90.031 137.904 91.388 C 135.714 92.748 133.938 94.683 132.768 96.983 C 131.531 99.36 130.912 102.033 130.912 105.007 C 130.912 107.987 131.531 110.66 132.768 113.034 C 133.938 115.334 135.714 117.269 137.904 118.632 C 140.094 119.989 142.544 120.665 145.26 120.665 C 147.168 120.687 149.064 120.341 150.84 119.649 C 154.157 118.362 156.754 115.704 157.964 112.36 L 167.353 112.36 C 166.689 115.505 165.261 118.442 163.2 120.91 C 161.1 123.419 158.441 125.403 155.437 126.705 C 152.329 128.083 148.917 128.772 145.196 128.772 C 140.798 128.772 136.814 127.74 133.246 125.669 L 133.246 125.679 L 133.246 125.676 Z" />
</svg>