<?xml version="1.0" encoding="utf-8"?>
<svg width="256" height="256" viewBox="0 0 256 256" fill="none" xmlns="http://www.w3.org/2000/svg" xmlns:bx="https://boxy-svg.com">
  <defs>
    <linearGradient id="__JETBRAINS_COM__LOGO_PREFIX__42" x1="64.391" x2="39.607" y1="56.329" y2="2.874" gradientUnits="userSpaceOnUse" gradientTransform="matrix(3.0625, 0, 0, 3.0625, 30.000854, 30)">
      <stop offset="0.21" stop-color="#007DFE" />
      <stop offset="0.55" stop-color="#FFB700" />
    </linearGradient>
    <linearGradient id="__JETBRAINS_COM__LOGO_PREFIX__41" x1="59.676" x2="1.08" y1="4.067" y2="62.663" gradientUnits="userSpaceOnUse" gradientTransform="matrix(3.0625, 0, 0, 3.0625, 30.000854, 30)">
      <stop offset="0.23" stop-color="#FFB700" />
      <stop offset="0.73" stop-color="#FF0A67" />
    </linearGradient>
    <bx:export>
      <bx:file format="svg" />
    </bx:export>
  </defs>
  <path d="M196 0H60C26.8629 0 0 26.8629 0 60V196C0 229.137 26.8629 256 60 256H196C229.137 256 256 229.137 256 196V60C256 26.8629 229.137 0 196 0Z" fill="#F4F2ED" clip-path="url(#clip0_45_439)" />
  <path fill="#007DFE" d="M 175.622 207.625 L 213.162 207.625 C 220.218 207.625 225.905 201.846 225.792 194.793 L 225.253 160.971 C 225.198 157.354 223.59 153.936 220.843 151.581 L 103.984 51.416 C 101.696 49.453 98.781 48.375 95.764 48.375 L 61.008 48.375 C 54.031 48.375 48.375 54.031 48.375 61.008 L 48.375 94.705 C 48.375 98.349 49.949 101.813 52.69 104.211 L 167.304 204.501 C 169.607 206.516 172.562 207.625 175.622 207.625 Z" />
  <path fill="url(#__JETBRAINS_COM__LOGO_PREFIX__42)" d="M 180.102 207.625 L 213.367 207.625 C 220.344 207.625 226 201.969 226 194.992 L 226 156.509 C 226 155.896 225.957 155.284 225.865 154.677 L 209.181 40.801 C 208.274 34.6 202.952 30 196.683 30 L 149.526 30 C 142.55 30 136.894 35.656 136.894 42.636 L 136.909 99.307 C 136.909 100.609 137.111 101.904 137.506 103.145 L 168.067 198.836 C 169.742 204.073 174.605 207.625 180.102 207.625 Z" />
  <path fill="url(#__JETBRAINS_COM__LOGO_PREFIX__41)" d="M 42.633 226 L 147.147 226 C 152.224 226 156.809 222.959 158.784 218.282 L 207.166 103.675 C 207.836 102.088 208.176 100.379 208.158 98.658 L 207.699 42.526 C 207.643 35.592 202.005 30 195.069 30 L 140.967 30 C 138.501 30 136.088 30.723 134.027 32.076 L 35.696 96.723 C 32.144 99.059 30 103.025 30 107.279 L 30 213.367 C 30 220.344 35.656 226 42.633 226 Z" />
  <path fill="#000" d="M 189.25 66.75 L 66.75 66.75 L 66.75 189.25 L 189.25 189.25 L 189.25 66.75 Z" />
  <path fill="#fff" d="M 131.063 164.75 L 82.063 164.75 L 82.063 173.938 L 131.063 173.938 L 131.063 164.75 Z M 82.038 82.038 L 101.767 82.038 C 104.982 82.038 107.818 82.629 110.268 83.811 C 112.718 84.993 114.608 86.656 115.934 88.803 C 117.257 90.947 117.918 93.427 117.918 96.251 C 117.918 99.075 117.245 101.61 115.897 103.785 C 114.553 105.965 112.635 107.65 110.155 108.841 C 107.671 110.035 104.786 110.63 101.503 110.63 L 90.999 110.63 L 90.999 127.994 L 82.038 127.994 L 82.038 82.038 Z M 105.129 102.342 C 106.259 101.782 107.129 100.983 107.742 99.944 C 108.354 98.903 108.66 97.697 108.66 96.318 C 108.66 94.94 108.354 93.709 107.742 92.689 C 107.129 91.673 106.256 90.883 105.132 90.325 C 104.005 89.768 102.685 89.489 101.176 89.489 L 90.999 89.489 L 90.999 103.178 L 101.176 103.178 C 102.685 103.178 104.005 102.903 105.132 102.342 L 105.129 102.342 Z M 97.075 107.742 L 106.857 107.742 L 118.904 128 L 108.63 128 L 97.075 107.745 L 97.075 107.742 Z M 126.815 82.038 L 144.311 82.038 C 148.666 82.038 152.567 83.021 156.016 84.993 C 159.421 86.92 162.22 89.755 164.104 93.182 C 166.052 96.674 167.025 100.615 167.025 105.016 C 167.025 109.417 166.052 113.361 164.107 116.853 C 162.22 120.279 159.421 123.115 156.016 125.042 C 152.57 127.011 148.666 127.994 144.311 127.994 L 126.815 127.994 L 126.815 82.038 Z M 151.401 118.408 C 153.459 117.183 155.045 115.428 156.163 113.141 C 157.278 110.853 157.838 108.149 157.838 105.016 C 157.838 101.883 157.278 99.176 156.163 96.891 C 155.045 94.603 153.459 92.849 151.401 91.621 C 149.343 90.396 146.948 89.783 144.213 89.783 L 135.776 89.783 L 135.776 120.246 L 144.213 120.246 C 146.948 120.246 149.343 119.633 151.401 118.408 Z" />
</svg>