<?xml version="1.0" encoding="utf-8"?>
<svg width="256" height="256" viewBox="0 0 256 256" fill="none"
	xmlns="http://www.w3.org/2000/svg"
	xmlns:bx="https://boxy-svg.com">
	<defs>
		<linearGradient id="__JETBRAINS_COM__LOGO_PREFIX__26" x1="7.671" x2="61.126" y1="64.392" y2="39.609" gradientUnits="userSpaceOnUse" gradientTransform="matrix(3.0625, 0, 0, 3.0625, 30.000854, 29.997002)">
			<stop offset="0.22" stop-color="#F0EB18"/>
			<stop offset="0.59" stop-color="#00C4F4"/>
		</linearGradient>
		<linearGradient id="__JETBRAINS_COM__LOGO_PREFIX__25" x1="59.932" x2="1.337" y1="59.676" y2="1.079" gradientUnits="userSpaceOnUse" gradientTransform="matrix(3.0625, 0, 0, 3.0625, 30.000854, 29.997002)">
			<stop offset="0.19" stop-color="#00C4F4"/>
			<stop offset="0.83" stop-color="#007DFE"/>
		</linearGradient>
		<bx:export>
			<bx:file format="svg"/>
		</bx:export>
	</defs>
	<path d="M196 0H60C26.8629 0 0 26.8629 0 60V196C0 229.137 26.8629 256 60 256H196C229.137 256 256 229.137 256 196V60C256 26.8629 229.137 0 196 0Z" fill="#242938" clip-path="url(#clip0_45_439)"/>
	<path fill="#F0EB18" d="M 48.375 175.619 L 48.375 213.159 C 48.378 220.212 54.154 225.899 61.207 225.789 L 95.029 225.25 C 98.646 225.192 102.067 223.587 104.419 220.84 L 204.584 103.981 C 206.544 101.693 207.625 98.775 207.625 95.761 L 207.625 61.005 C 207.625 54.028 201.969 48.372 194.992 48.372 L 161.296 48.372 C 157.651 48.372 154.187 49.946 151.786 52.687 L 51.502 167.298 C 49.487 169.601 48.375 172.559 48.375 175.619 Z"/>
	<path fill="url(#__JETBRAINS_COM__LOGO_PREFIX__26)" d="M 48.375 180.105 L 48.375 213.37 C 48.375 220.347 54.031 226.003 61.008 226.003 L 99.491 226.003 C 100.104 226.003 100.716 225.96 101.323 225.868 L 215.202 209.184 C 221.403 208.274 226 202.955 226 196.686 L 226 149.526 C 226 142.547 220.341 136.89 213.361 136.894 L 156.693 136.909 C 155.388 136.909 154.093 137.111 152.852 137.506 L 57.167 168.07 C 51.931 169.742 48.375 174.608 48.375 180.105 Z"/>
	<path fill="url(#__JETBRAINS_COM__LOGO_PREFIX__25)" d="M 30 42.63 L 30 147.144 C 30 152.224 33.041 156.806 37.718 158.781 L 152.325 207.163 C 153.912 207.833 155.618 208.173 157.342 208.155 L 213.474 207.695 C 220.408 207.637 226 201.999 226 195.066 L 226 140.964 C 226 138.495 225.277 136.085 223.924 134.021 L 159.277 35.693 C 156.944 32.138 152.975 29.997 148.721 29.997 L 42.633 29.997 C 35.656 29.997 30 35.653 30 42.63 Z"/>
	<path fill="#000" d="M 189.25 66.747 L 66.75 66.747 L 66.75 189.247 L 189.25 189.247 L 189.25 66.747 Z"/>
	<path fill="#fff" d="M 131.063 164.747 L 82.063 164.747 L 82.063 173.934 L 131.063 173.934 L 131.063 164.747 Z M 88.344 82.035 L 95.764 115.585 L 103.675 82.035 L 112.733 82.035 L 121.005 115.585 L 128.196 82.035 L 137.292 82.035 L 126.129 127.991 L 115.918 127.991 L 108.17 94.61 L 100.327 127.991 L 90.148 127.991 L 79.052 82.035 L 88.341 82.035 L 88.344 82.035 Z M 148.402 126.968 C 145.83 125.764 143.818 124.08 142.363 121.915 C 140.908 119.747 140.158 117.254 140.112 114.43 L 149.107 114.43 C 149.107 115.765 149.456 116.935 150.157 117.943 C 150.859 118.95 151.832 119.737 153.079 120.307 C 154.325 120.874 155.759 121.158 157.379 121.158 C 159.002 121.158 160.294 120.904 161.467 120.39 C 162.637 119.875 163.543 119.159 164.19 118.24 C 164.833 117.321 165.157 116.271 165.157 115.089 C 165.157 113.622 164.713 112.409 163.828 111.444 C 162.94 110.483 161.721 109.815 160.169 109.441 L 152.059 107.634 C 150.004 107.215 148.059 106.37 146.347 105.157 C 144.764 104.027 143.472 102.535 142.574 100.808 C 141.677 99.081 141.227 97.133 141.227 94.965 C 141.227 92.34 141.907 89.982 143.264 87.89 C 144.62 85.802 146.513 84.17 148.941 83 C 151.37 81.83 154.129 81.245 157.213 81.245 C 160.3 81.245 163.136 81.814 165.586 82.954 C 168.036 84.093 169.944 85.673 171.313 87.698 C 172.682 89.719 173.374 92.046 173.395 94.671 L 164.438 94.671 C 164.438 93.556 164.141 92.555 163.55 91.67 C 162.958 90.785 162.122 90.092 161.038 89.599 C 159.865 89.091 158.591 88.84 157.311 88.864 C 155.912 88.864 154.681 89.097 153.621 89.569 C 152.629 89.982 151.771 90.665 151.14 91.538 C 150.543 92.402 150.234 93.431 150.255 94.478 C 150.255 95.746 150.666 96.796 151.486 97.626 C 152.307 98.459 153.428 99.047 154.852 99.399 L 162.661 101.105 C 164.918 101.565 166.924 102.437 168.688 103.714 C 170.413 104.949 171.821 106.569 172.807 108.443 C 173.797 110.332 174.302 112.433 174.284 114.565 C 174.284 117.278 173.567 119.713 172.134 121.869 C 170.7 124.022 168.695 125.712 166.113 126.94 C 163.528 128.165 160.573 128.778 157.25 128.778 C 153.924 128.778 150.972 128.175 148.402 126.971 L 148.402 126.968 Z"/>
</svg>